<mxfile host="app.diagrams.net" modified="2024-04-01T06:37:49.224Z" agent="Mozilla/5.0 (Macintosh; Intel Mac OS X 10_15_7) AppleWebKit/537.36 (KHTML, like Gecko) Chrome/123.0.0.0 Safari/537.36" version="24.0.6" etag="0CH065VO5h63MYMWqrzL" type="github">
  <diagram name="第 1 页" id="2l0wkV5MG7BHutLUghD6">
    <mxGraphModel>
      <root>
        <mxCell id="0" />
        <mxCell id="1" parent="0" />
      </root>
    </mxGraphModel>
  </diagram>
</mxfile>
